PathFileType	4	(X/Y/Z)	C:/Users/opensim2020/Desktop/walking_exp_matlab/subject02_walking12_straight_02.trc																																																																																																																												
DataRate	CameraRate	NumFrames	NumMarkers	Units	OrigDataRate	OrigDataStartFrame	OrigNumFrames																																																																																																																								
100	100	7	42	mm	100	1053	149																																																																																																																								
Frame#	Time	LFHD			RFHD			LBHD			RBHD			C7			T10			CLAV			STRN			RBAK			LSHO			LUPA			LELB			LFRM			LWRA			LWRB			LFIN			RSHO			RUPA			RELB			RFRM			RWRA			RWRB			RFIN			LASI			RASI			LPSI			RPSI			LTHI			LKNE			LTIB			LANK			LHEE			LTOE			RTHI			RKNE			RTIB			RANK			RHEE			RTOE			*39			*40			*41		
		X1	Y1	Z1	X2	Y2	Z2	X3	Y3	Z3	X4	Y4	Z4	X5	Y5	Z5	X6	Y6	Z6	X7	Y7	Z7	X8	Y8	Z8	X9	Y9	Z9	X10	Y10	Z10	X11	Y11	Z11	X12	Y12	Z12	X13	Y13	Z13	X14	Y14	Z14	X15	Y15	Z15	X16	Y16	Z16	X17	Y17	Z17	X18	Y18	Z18	X19	Y19	Z19	X20	Y20	Z20	X21	Y21	Z21	X22	Y22	Z22	X23	Y23	Z23	X24	Y24	Z24	X25	Y25	Z25	X26	Y26	Z26	X27	Y27	Z27	X28	Y28	Z28	X29	Y29	Z29	X30	Y30	Z30	X31	Y31	Z31	X32	Y32	Z32	X33	Y33	Z33	X34	Y34	Z34	X35	Y35	Z35	X36	Y36	Z36	X37	Y37	Z37	X38	Y38	Z38	X39	Y39	Z39	X40	Y40	Z40	X41	Y41	Z41	X42	Y42	Z42
																																																																																																																															
38	0.37	-390.3056	1732.78796	-1470.38159	-408.91617	1703.95374	-1330.42932	-511.91833	1649.47449	-1501.36475	-542.22705	1619.25098	-1364.47241	-570.40088	1508.94043	-1436.59351	-624.32886	1233.09485	-1435.6178	-432.94498	1439.42065	-1446.52051	-380.87881	1267.07104	-1443.34546	-629.32489	1332.46875	-1381.70886	-499.30334	1492.28284	-1613.18689	-506.05511	1311.19409	-1724.54761	-485.46716	1179.41394	-1776.30383	-395.12427	1082.37476	-1807.18726	-269.47552	1027.08997	-1791.2738	-306.74817	998.60211	-1822.76587	-249.30449	972.12537	-1838.47192	-499.37173	1464.34033	-1250.29944	-553.95099	1277.22705	-1176.24878	-564.03412	1130.15503	-1168.65381	-561.21771	1010.27368	-1152.42249	-540.72766	876.00256	-1172.73535	-588.16779	883.09747	-1141.64746	-567.70923	812.82068	-1141.46472	-404.66248	955.00739	-1567.85583	-383.68576	966.55951	-1318.88477	-605.60699	1015.02533	-1479.65039	-602.1803	1022.77264	-1362.43408	-500.88046	650.37415	-1631.42053	-539.10803	468.9407	-1621.79822	-699.54089	377.7822	-1614.64832	-855.32867	223.96872	-1579.34705	-882.96588	227.56435	-1518.82263	-810.54425	75.38012	-1611.58289	-394.30145	668.20367	-1251.71887	-355.50534	466.60574	-1307.64563	-385.70871	279.52829	-1307.07312	-399.75082	90.13962	-1354.03149	-435.52252	39.41485	-1411.45374	-247.91734	38.48459	-1342.07104	-508.39777	1784.1322	-1391.37952	-2845.85425	1034.29138	3357.13184	NaN	NaN	NaN
39	0.38	-377.98404	1735.5874	-1469.302	-396.78088	1706.16577	-1329.50024	-499.75342	1652.52844	-1500.9447	-530.17511	1621.77344	-1364.15051	-558.28455	1511.67053	-1436.10864	-612.2113	1235.86389	-1435.19727	-420.89389	1442.18701	-1446.93201	-368.68759	1269.76062	-1444.12158	-617.03729	1335.43335	-1380.49451	-488.24335	1495.0448	-1613.39722	-497.06778	1312.02673	-1722.35291	-478.4762	1178.96033	-1771.651	-391.09283	1078.78711	-1801.74854	-267.03851	1019.50629	-1785.73206	-305.69891	992.20343	-1817.09546	-248.9406	963.00409	-1832.01794	-485.26361	1466.95715	-1250.0061	-537.86456	1279.16138	-1175.71851	-547.82629	1132.3158	-1167.5697	-543.59711	1012.61951	-1151.1709	-522.15967	878.63379	-1171.46606	-569.12598	885.15961	-1139.95349	-547.78192	815.33307	-1139.60547	-393.28793	957.79364	-1568.67944	-372.06451	968.20892	-1318.90967	-594.05988	1017.91394	-1478.79492	-590.51929	1025.62695	-1361.84265	-481.59473	652.52307	-1631.1012	-513.47119	471.93668	-1620.8855	-673.36841	380.19955	-1611.59155	-828.93506	225.76912	-1576.39026	-856.59052	227.86734	-1515.46936	-782.01947	79.2647	-1612.90027	-386.91165	669.27222	-1251.79163	-351.56583	466.79318	-1307.3335	-383.13577	279.69992	-1306.40076	-399.72	90.57387	-1353.43726	-435.72635	39.43382	-1411.29504	-248.11871	38.45624	-1341.91235	-495.98029	1786.4812	-1390.01013	-2846.03052	1034.34424	3357.34302	NaN	NaN	NaN
40	0.39	-366.02325	1738.53149	-1468.83789	-384.80304	1708.62085	-1329.11096	-487.67331	1655.58533	-1500.55139	-518.15729	1624.38806	-1363.87366	-546.1731	1514.35938	-1435.7323	-600.21002	1238.63477	-1434.73035	-408.85931	1445.00403	-1447.35657	-356.40131	1272.34119	-1444.68677	-604.35718	1338.43286	-1379.07825	-477.03159	1497.73328	-1613.45984	-488.48062	1313.32275	-1720.56213	-471.7821	1178.9718	-1767.26965	-387.5784	1075.50391	-1796.48877	-265.45657	1011.87024	-1780.1814	-305.23199	985.78821	-1811.22839	-249.87064	954.05377	-1825.77759	-472.08536	1469.82642	-1250.25098	-522.43335	1281.82434	-1174.59692	-530.88922	1134.75439	-1166.82288	-525.79077	1015.18121	-1150.05188	-502.50394	881.61096	-1169.86328	-549.84253	887.49176	-1138.47656	-526.79547	817.82153	-1137.24292	-382.38177	960.99573	-1569.99426	-360.64499	969.91925	-1318.90613	-582.63129	1020.85004	-1477.80127	-579.02911	1028.39282	-1361.21912	-462.19901	655.19537	-1630.91943	-488.35077	474.991	-1620.09473	-647.71375	382.56641	-1608.61267	-802.03204	226.56567	-1573.44543	-829.52606	226.7986	-1512.22632	-752.02924	82.48519	-1613.9198	-379.47928	670.39026	-1252.03967	-348.29129	466.59293	-1307.0907	-381.01724	279.79611	-1306.04297	-399.61011	90.80308	-1353.47083	-435.9339	39.43079	-1411.1554	-248.34766	38.59777	-1341.79077	-483.99368	1789.28796	-1389.38562	-2845.24536	1034.1698	3360.43481	NaN	NaN	NaN
41	0.4	-353.86005	1740.93384	-1468.15552	-372.59418	1710.85486	-1328.57825	-475.66251	1658.58728	-1500.3175	-506.19879	1627.01636	-1363.65417	-534.11639	1517.10645	-1435.48682	-588.26196	1241.44128	-1434.28528	-396.85101	1447.71301	-1447.82019	-344.47345	1274.93457	-1445.37341	-592.60956	1341.78857	-1378.45728	-466.06693	1500.48474	-1613.93188	-479.60339	1314.547	-1718.7948	-464.96078	1179.0625	-1762.9281	-384.40372	1072.28967	-1791.26599	-264.80353	1004.1123	-1774.65149	-305.32797	979.19482	-1805.06311	-251.43762	944.71698	-1819.08801	-458.37106	1472.78149	-1250.24292	-507.25848	1284.42578	-1174.08984	-514.39136	1137.3031	-1165.65051	-507.5752	1017.80426	-1148.87964	-482.87677	884.52905	-1168.61694	-529.80658	889.81787	-1136.74902	-505.91739	820.79926	-1135.56738	-371.7543	964.54163	-1571.4751	-349.38358	971.72467	-1318.90601	-571.35437	1023.82288	-1476.77551	-567.63013	1030.96716	-1360.59546	-442.86087	658.23346	-1630.96802	-463.92767	477.77826	-1619.39905	-622.29181	384.75296	-1605.59863	-774.44891	226.32133	-1571.07043	-801.75012	224.56563	-1509.36963	-720.71899	84.33585	-1613.85608	-372.00589	671.18365	-1252.16321	-345.52802	466.44473	-1306.7688	-379.25854	279.76843	-1305.94312	-399.52527	90.9134	-1353.37048	-436.08914	39.44354	-1411.11462	-248.43222	38.44013	-1341.59509	-471.69339	1791.85718	-1388.58643	-2845.17505	1034.24878	3360.27686	NaN	NaN	NaN
42	0.41	-341.879	1743.64539	-1468.09998	-360.57568	1713.30615	-1328.5592	-463.71173	1661.4281	-1500.19043	-494.17554	1629.58032	-1363.59058	-521.97461	1519.80139	-1435.32715	-576.36707	1244.21594	-1433.8053	-384.77005	1450.39404	-1448.27283	-333.66241	1277.27356	-1446.1626	-580.54175	1344.8313	-1377.61621	-454.89221	1502.98547	-1614.16248	-470.61389	1315.79163	-1717.08154	-457.90079	1179.09424	-1758.55139	-381.80243	1069.4209	-1786.25793	-264.53296	996.4718	-1769.20776	-306.37051	973.07166	-1799.23096	-254.32983	935.7713	-1812.68469	-444.91702	1475.94275	-1250.49512	-492.42163	1287.01038	-1174.08203	-497.65549	1139.99512	-1164.60217	-488.84296	1020.45953	-1147.375	-462.62933	887.48547	-1167.146	-509.79852	892.42426	-1135.37317	-484.45157	823.77679	-1133.85486	-361.31329	968.39905	-1572.88452	-338.22687	973.70026	-1318.81665	-560.23993	1026.82861	-1475.85571	-556.38837	1033.42664	-1359.95581	-423.92041	661.42047	-1631.2417	-440.21121	480.52106	-1618.7511	-596.65704	386.04117	-1602.35425	-745.80975	224.37357	-1568.78345	-773.53326	221.52031	-1507.13635	-688.10211	85.24982	-1613.48035	-365.45471	672.00977	-1252.61829	-343.16385	466.39774	-1306.69519	-377.79358	279.7305	-1306.08057	-399.5383	90.9036	-1353.37964	-436.00076	39.73618	-1411.20996	-248.57593	38.4	-1341.46606	-459.43906	1794.42981	-1388.05652	-2845.91309	1034.25916	3357.38208	NaN	NaN	NaN
43	0.42	-329.84833	1746.12488	-1468.06702	-348.37863	1715.59045	-1328.5918	-451.81274	1664.11194	-1500.14722	-482.91904	1632.06555	-1363.81372	-509.88602	1522.43237	-1435.27283	-564.58746	1246.88196	-1433.29834	-372.79453	1452.88916	-1448.73755	-321.9082	1279.6637	-1446.62109	-568.30359	1347.74255	-1376.75171	-443.51733	1505.24072	-1614.22961	-461.43842	1317.05994	-1715.48792	-451.09665	1179.6405	-1754.90601	-379.35434	1066.44202	-1781.13965	-265.05933	988.48059	-1763.30835	-307.96509	966.71893	-1792.94092	-257.92538	926.74084	-1805.98181	-431.89661	1479.07239	-1250.87146	-476.06107	1289.80225	-1173.04956	-480.82663	1142.77979	-1163.55676	-470.28781	1023.27209	-1146.22595	-442.25729	891.01434	-1166.10474	-489.08829	894.94495	-1133.78076	-462.66837	826.94818	-1132.14087	-350.52875	972.24487	-1573.84094	-327.20068	975.68811	-1318.67041	-548.867	1029.63965	-1474.91064	-545.10419	1035.7356	-1359.34998	-405.02896	664.7569	-1631.39954	-416.96811	483.36581	-1618.11853	-571.15961	386.75537	-1599.60095	-716.65277	221.44633	-1566.81104	-744.55829	217.00345	-1505.03369	-654.11206	84.80457	-1612.45483	-359.30219	672.51721	-1252.5542	-341.08502	466.19644	-1306.75061	-376.87326	279.73737	-1306.4032	-399.61288	91.05679	-1353.53638	-436.0824	39.83662	-1411.32288	-248.761	38.52741	-1341.3656	-447.21564	1796.90747	-1387.77905	-2845.8335	1034.38416	3357.42334	NaN	NaN	NaN
44	0.43	-317.80579	1748.55945	-1468.19092	-336.19595	1717.59912	-1328.50513	-439.90598	1666.5752	-1500.24194	-470.67938	1634.35144	-1363.94141	-497.8222	1524.87854	-1435.39856	-552.77704	1249.33093	-1432.63794	-360.72708	1455.3053	-1449.22656	-310.1333	1281.87244	-1446.97717	-556.11212	1350.51257	-1376.05396	-432.12762	1507.29272	-1614.4469	-451.76315	1318.01892	-1713.82544	-443.83405	1179.82861	-1750.92456	-377.1629	1063.58618	-1776.10083	-266.05301	980.84436	-1757.646	-309.92184	960.51971	-1786.64673	-262.18585	917.83337	-1798.93213	-418.97461	1482.22571	-1251.44922	-461.44693	1292.14673	-1173.24658	-463.96237	1145.52319	-1162.51135	-452.06235	1026.36426	-1145.55164	-421.42603	894.63049	-1165.06372	-468.21381	897.66968	-1132.39587	-440.43283	830.24121	-1130.52039	-340.01089	976.35541	-1574.8512	-316.64999	977.46936	-1318.45605	-537.63116	1032.2926	-1474.14539	-533.89703	1037.88867	-1358.90002	-386.66357	668.22461	-1631.74731	-394.12576	486.39374	-1617.33154	-545.52814	386.47281	-1597.35486	-686.58069	216.97641	-1564.79285	-714.91956	211.68497	-1503.37036	-619.24408	83.52188	-1611.30579	-354.28714	672.85101	-1252.84961	-339.18076	466.04141	-1306.80322	-376.6575	280.02203	-1306.72815	-399.7363	91.23507	-1353.85474	-436.11542	39.95685	-1411.52319	-248.80484	38.48495	-1341.22278	-435.27335	1799.45435	-1388.0885	-2845.3064	1034.11047	3360.39575	NaN	NaN	NaN
